<svg width="30" height="30" viewBox="0 0 30 30" fill="none" xmlns="http://www.w3.org/2000/svg">
<path fill-rule="evenodd" clip-rule="evenodd" d="M13.7594 0.0219941L13.0265 0.0659824V29.934L13.7594 29.978C14.0425 29.9927 14.3182 30 14.5867 30C14.8553 30 15.1383 29.9927 15.414 29.978L16.147 29.934V0.0659824L15.414 0.0219941C14.8553 -0.00733137 14.3255 -0.00733137 13.7594 0.0219941ZM21.1036 15.1613C21.0455 15.0146 21.0455 14.8533 21.1036 14.7067L25.0514 4.3328L24.6595 3.97356C24.2314 3.57767 23.7742 3.19643 23.3025 2.85186L22.4824 2.25069L18.179 13.5703C17.8451 14.4428 17.8451 15.4105 18.1717 16.283L22.4679 27.7492L23.2952 27.1481C23.7669 26.8035 24.2241 26.4223 24.6523 26.0264L25.0369 25.6671L21.1036 15.1613ZM4.86948 13.3431L1.12484 8.52638L0.645877 9.85336C0.413652 10.4985 0.224969 11.1657 0.0798276 11.8475L0 12.2067L2.10454 14.9047C2.17711 14.9927 2.17711 15.1246 2.10454 15.2126L0.0145141 17.8519L0.0943417 18.2185C0.239483 18.893 0.435423 19.5528 0.667649 20.1906L1.14661 21.4956L4.86222 16.7962C5.67501 15.7698 5.67501 14.3842 4.86948 13.3431ZM29.1807 12.17L27.0834 14.824C27.0109 14.9193 27.0109 15.0439 27.0762 15.1319L29.1735 17.8225L29.0936 18.1818C28.9485 18.8563 28.7526 19.5234 28.5203 20.1686L28.0414 21.4882L24.3112 16.6935C23.5057 15.6524 23.5057 14.2595 24.3257 13.2258L28.0559 8.51167L28.5348 9.82399C28.7671 10.4618 28.9558 11.129 29.1009 11.8035L29.1807 12.17ZM5.87822 2.85186L6.70552 2.25069L11.0162 13.761C11.3428 14.6334 11.3428 15.6011 11.009 16.4736L6.72004 27.7566L5.89999 27.1554C5.42828 26.8108 4.97109 26.4296 4.54292 26.0337L4.15104 25.6744L8.08436 15.3372C8.14242 15.1906 8.14242 15.0293 8.08436 14.8827L4.13653 4.34013L4.52115 3.97356C4.94932 3.57767 5.40651 3.19643 5.87822 2.85186Z" fill="#61D7AC"/>
</svg>
